<svg xmlns="http://www.w3.org/2000/svg" viewBox="0 0 1024 1024"><path fill="#fad812" stroke="#fad812" d="M251.231 27.018c-7.758 1.131-11.101 4.969-5.981 6.865C250.066 35.666 278 36 278 34.274c0-1.365 1.234-1.493 9.25-.953 28.988 1.951 56.137 11.398 83.681 29.117l7.431 4.781-2.431 1.926c-6.854 5.431-19.854 9.795-29.306 9.838-3.7.016-3.848.141-3.287 2.767l2.1 9.817c5.15 24.07 5.555 51.026 5.544 368.933-.013 359.926-.681 392.338-9.117 442.5-5.015 29.819-12.773 46.173-25.419 53.585-6.082 3.564-20.405 6.278-37.282 7.065-11.282.526-14.782 1.03-16.433 2.366l-2.097 1.698 2.89 1.893c2.638 1.728 4.76 1.874 24.355 1.673l21.465-.221 3.078-2.857c2.239-2.077 5.259-3.347 11.078-4.657 10.457-2.354 21.132-6.598 30.829-12.258l7.829-4.57 8.539.656c17.91 1.377 35.524 7.782 45.456 16.529l4.654 4.098 14.846.001c15.554.001 85.197 1.96 159.847 4.497 75.743 2.574 146.062 3.661 170 2.629 41.824-1.805 46.936-4.909 52.901-32.127 11.134-50.804 20.13-122.856 15.873-127.123-3.415-3.423-6.779 4.386-10.273 23.843-8.436 46.984-29.791 68.892-77.153 79.154-46.618 10.1-173.745 9.898-219.966-.351-53.246-11.806-62.24-33.13-68.122-161.523-1.846-40.281-1.814-599.958.036-628.5 2.905-44.826 8.092-63.824 21.276-77.917 10.633-11.368 17.997-13.441 51.428-14.477 23.259-.72 27.5-1.444 27.5-4.692 0-5.45-21.074-6.011-110.174-2.93-35.253 1.219-50.791 1.336-71.209.539-67.627-2.642-116.681-3.42-126.386-2.005m151.323 94.732c-.444 9.971-.331 16.667.309 18.25.738 1.826 1.027-2.422 1.074-15.75.034-10.037-.104-18.25-.309-18.25-.205 0-.688 7.088-1.074 15.75m.077 185.5c-.329 17.738-1.169 60.15-1.865 94.25-1.392 68.194-1.334 120.769.21 188.5.557 24.475 1.073 71.95 1.145 105.5.071 33.55.445 67.525.829 75.5.385 7.975.778-100.362.875-240.75.096-140.387.002-255.25-.21-255.25-.211 0-.654 14.512-.984 32.25m.601 513.75c0 1.925.206 2.712.457 1.75.252-.962.252-2.538 0-3.5-.251-.962-.457-.175-.457 1.75m-.074 6c0 1.375.227 1.938.504 1.25.278-.687.278-1.812 0-2.5-.277-.687-.504-.125-.504 1.25m-.637 10.75c-.829 3.28-.585 27.333.433 42.75.575 8.699.76 5.089.886-17.25.088-15.538-.016-28.25-.232-28.25-.215 0-.704 1.237-1.087 2.75" fill-rule="evenodd"/><path fill="#50250a" stroke="#50250a" d="M276 29.191c0 2.46.202 2.528 9.397 3.174 37.793 2.657 73.514 17.785 108.853 46.1l9.75 7.812V912.83l4.75 3.464c24.986 18.226 67.91 28.38 142.75 33.77 53.325 3.84 190.892 1.692 221.196-3.454l7.196-1.222 13.598 10.892c14.742 11.809 14.274 11.669 18.608 5.582 4.619-6.487 13.007-50.098 20.344-105.774 3.078-23.354 3.149-25.349.892-24.911-1.303.253-2.36 3.805-4.854 16.323-3.551 17.822-7.083 30.5-8.497 30.5-.512 0-1.659-1.407-2.549-3.128l-1.617-3.127-3.057 5.377c-22.9 40.292-74.545 52.474-207.26 48.889-73.892-1.995-103.098-8.898-121.666-28.755-18.977-20.296-24.904-68.337-26.74-216.756-1.101-88.967.378-546.388 1.822-563.5 2.774-32.883 7.742-50.5 18.049-64 6.13-8.029 6.201-7.33-.965-9.5-3.3-.999-6-2.133-6-2.519 0-.999 12.304-4.753 21.084-6.433 14.105-2.699 54.416-4.784 51.031-2.64-3.942 2.496 9.209 4.268 14.338 1.931 3.237-1.474 3.205-2.362-.163-4.566-3.462-2.265-43.126-2.403-111.29-.387-35.321 1.045-51.876 1.098-74 .236-15.675-.61-43.462-1.41-61.75-1.777L276 26.678v2.513" fill-rule="evenodd"/></svg>