<?xml version="1.0" encoding="UTF-8"?>
<svg id="svg" xmlns="http://www.w3.org/2000/svg" version="1.1" viewBox="0 0 400 400">
  <defs>
    <style>
      .cls-1 {
        fill: #75aac3;
      }

      .cls-1, .cls-2, .cls-3, .cls-4, .cls-5 {
        fill-rule: evenodd;
        stroke-width: 0px;
      }

      .cls-2 {
        fill: #e74148;
      }

      .cls-3 {
        fill: #1d83c5;
      }

      .cls-4 {
        fill: #33a2e0;
      }

      .cls-5 {
        fill: #06203a;
      }
    </style>
  </defs>
  <g id="svgg">
    <path id="path0" class="cls-2" d="M257.1,22.5c.1,1.4-.1,2-1.2,3.6-1.2,1.6-54.6,56.3-68.3,69.9-2.8,2.8-12.9,13-22.4,22.8-9.6,9.8-25.9,26.3-36.3,36.8-24,24.2-25.7,26.2-26.9,33.3-1.4,8.4,4.1,16.8,11,16.9,4.5,0,4.3.3,32.2-27.7,28.1-28.2,27.8-27.9,32-27.5,2.5.2,4.3,1.8,4.6,3.9l.2,1.5,1.9-.8c4.6-2,9.1-5.9,17.6-15.1,5.8-6.3,7.8-9.3,10.9-16.7,5.5-13.2,8.7-16.1,28.4-25.9,4.3-2.1,9.7-5.1,27.6-15,16.5-9.1,21-10.1,29-6.4,7.4,3.4,10.1,9.3,9.6,20.8-.5,11.8.8,11.7,15.2-.4,10.6-8.9,16.6-15.8,16.5-19,0-6.5-30.2-34.7-48-44.9-12.7-7.3-24-11.7-30.4-11.7h-3.4s.1,1.7.1,1.7M244.9,130.6c-2.5,1.8-1.8,5.3,1.9,8.9,2.9,2.8,4.3,3.7,6,3.7,3,0,4.5-4.2,1.8-5.1-1.8-.7-5.2-3.7-6.7-6.1-1.4-2.2-1.8-2.3-3.1-1.4M223.8,139.9c-3.1,2.7-9.7,9.5-21,21.7-3.2,3.4-19.8,20.5-37,38-42.4,43.1-46.5,47.5-48.8,52-3.5,6.8,1.9,8.5,9.2,3,5-3.7,29.6-27.7,71.6-69.5,19.4-19.3,35.7-35.4,36.2-35.8.5-.3,1-.7,1.1-.7,0,0-1.1-1.4-2.7-2.9-2-2-3.3-3.6-4.2-5.6l-1.3-2.8-3.2,2.8M284.2,309.6c-17.3,4.1-14.3,29.8,3.4,29.8,15.8,0,20.5-21,6.5-28.5-2.8-1.5-3.2-1.6-2.1-.4,4.2,4.5-1.7,12.5-6.1,8.4-2.7-2.6-2-8.8,1.1-9.4.7-.1.6-.2-.3-.2-.7,0-1.8.1-2.4.3"/>
    <path id="path1" class="cls-5" d="M186.8,12.4c-31.7,2.3-66.7,13.6-92.3,29.8C21.8,88.4-10.1,181.8,18.5,264.6c2.4,7,4.6,8.8,7.9,6.7.6-.4,13.7-13.2,29.2-28.5,28.7-28.4,31.3-30.7,34.8-31.6,7.2-1.7,13.6,4.7,11.5,11.6-.8,2.8-3.7,5.9-34.5,36.9-16.9,17.1-31.1,31.6-31.5,32.3-3,5.6,2.4,8.7,8,4.6,2.7-2,35.7-34.8,54.5-54.2,7.3-7.6,28-28.5,45.8-46.4,31.6-31.7,36-36.3,37.3-39,1.4-3-.7-6.1-4.3-6.5-4.2-.4-4-.6-32,27.5-27.9,28-27.7,27.8-32.2,27.7-6.9-.1-12.4-8.5-11-16.9,1.2-7.1,2.8-9.1,26.9-33.3,10.4-10.5,26.8-27,36.3-36.8,9.6-9.8,19.7-20,22.4-22.8,13.8-13.7,67.2-68.3,68.3-69.9,2.9-4.1,1.6-5.6-6.9-8-17.5-4.9-41.5-7.1-62.2-5.6M202.8,29.1c6.3,3.2,6.2,12.3-.2,15.6-2.1,1.1-5.8.9-8.1-.5-9.5-5.9-1.6-20.1,8.3-15.1M164,49.1c5.4,2.4,9.4,9.1,8.6,14.4-1.9,13.8-21.3,17.1-27.9,4.8-6.1-11.3,7.2-24.6,19.2-19.2M111.7,81.1c13.3,6.6,10.7,26-3.9,28.9-10.7,2.1-20-8.9-16.8-19.7,2.5-8.7,12.6-13.2,20.7-9.2M275,98.8c-4.5,1.9-34.9,17.9-39.1,20.7-5.8,3.8-8.7,9.5-8.7,16.7s4.3,9.6,9.3,12.8c5.5,3.5,6.5,8.1,2.9,12.9-1.6,2.1-104.6,105.2-115.9,116-8,7.7-9.2,12.9-3.1,13.6,3.9.4,4.2.2,96.1-91.5l38.4-38.3,4.2-2.1c4.7-2.3,7-4.3,8.5-7.6,3.1-6.9,15.5-45,15.8-48.4.5-5.7-2.5-7.4-8.5-4.9M349.6,101.4c-2.6,1.3-6.7,5.2-45.6,43.9-16,15.9-30.4,29.9-32.8,31.8-13,10.5-16.9,16.3-18.2,27.2-1,8.5.4,6.9-46.4,53.2-10.8,10.7-32.7,32.4-48.8,48.4-16.1,16-34.7,34.4-41.3,41-12.8,12.7-14.1,14.3-13.3,16.4,1.5,3.9,7,5.4,11,2.9,2-1.3,18.4-17.5,97-96,52.3-52.2,47.4-48.2,55.9-46.1,14.7,3.6,16.5,2.5,48.5-29.2,12.7-12.5,30.4-30,39.3-38.8,17.1-16.8,17.6-17.3,18.2-20.3,1.3-5.9-3.6-9.5-8.4-6.3-1.7,1.1-17.5,16.7-61.6,60.6-17.6,17.6-20.9,20.7-22.8,21.6-10.8,4.9-19.3-6.3-12.3-16.4.7-1,3.3-3.8,5.7-6.1,7.8-7.4,20.2-19.6,43-42.2,40.8-40.3,39.6-39.1,39.6-42.5s-3-5-6.8-3.1M261.4,121.2c3.6,1.4,1.5,10.8-3.5,15.7-1.4,1.4-1.9,2.2-1.9,3,0,2.9-3.1,4.2-5.8,2.5-6.4-4.2-8.7-10.4-4.5-12.2.8-.4,1.5-1,1.9-1.8,1.6-3.9,10.5-8.5,13.8-7.2M64.7,122.6c5.5,2.7,6.7,10.4,2.3,14.7-5.7,5.6-15.3,1.5-15.4-6.5,0-6.9,7-11.3,13.1-8.3M99.4,142.2c3.2,1.9,4.4,6.3,2.6,9.8-2.6,5.1-10.3,5-12.8-.1-3.2-6.7,3.8-13.4,10.1-9.7M378.1,158.7c-1.1.6-47.4,47-76.9,77.1-11.3,11.5-14.6,14.3-22.1,18.7-13.3,7.7-7.6,2.4-71.2,66.1-60.9,61-59.3,59.2-58.1,62,2.1,5.1,35,10.3,56.9,9.1,43-2.5,78-14.9,108.2-38.4,48.6-37.9,74.7-92.3,73.8-154.2-.4-28-4.5-43.5-10.5-40.3M41.5,160.8c3,1.8,3.6,6.3,1.2,9-4.8,5.5-13.1-.6-9.5-7,1.5-2.7,5.5-3.7,8.3-2M69.7,178.8c7.2,2,6.7,12.7-.6,13.8-2.2.4-4.2-.2-5.7-1.6-5.7-5-.9-14.3,6.4-12.3M40.8,197c1.1.6,2.4,2.7,2.4,4,0,3.8-5.2,6.1-8,3.5-4.1-3.7.6-10.1,5.6-7.5M341.4,250c14.9,5.6,17.6,24.8,4.6,33.5-12.3,8.2-28.3.7-29.8-14.1-1.4-13,13-24,25.2-19.4M293.9,310.8c9.1,4.8,11.2,16.7,4.4,24.2-6.6,7.3-19.3,5.8-23.8-2.9-6.9-13.1,6.8-28.1,19.4-21.3M243.6,323.4c3.9,2,3.5,7.9-.8,9.4-4.4,1.5-8.4-3.1-6.3-7.2,1.3-2.5,4.5-3.4,7-2.1"/>
    <path id="path3" class="cls-4" d="M149.2,60.3c0,4.3,3.6,8.9,7,8.9.4,0,0-.4-.9-.8-3.3-1.6-5.2-4.3-5.8-7.9l-.3-2.3v2.1M377.4,143.4c.2,1.8,2.5,7.2,2.8,6.9.2-.2-1.6-5.6-2.4-7.5l-.6-1.4.2,2M224.6,219.7c-14.6,14.6-35,34.9-45.4,45.1-10.4,10.2-27.2,26.8-37.3,36.8-23.4,23.2-30.6,29.7-46.1,41.3-10.1,7.6-10.2,10-.3,16.3l2.4,1.5.4-1.7c.6-2.5,1.3-3.4,5.9-7.8,2.2-2.1,6.1-5.8,8.7-8.3,5.2-4.9,26.9-26.4,46-45.4,20.6-20.5,46.7-46.3,64.6-63.8q23.7-23.2,24.8-30.6c.5-2.9,1.1-5.1,2-7.1.8-1.6,1.3-2.9,1.1-2.9s-12.2,11.9-26.7,26.5M258.2,233.3c-1.3,1.1-5,5.1-8.3,8.7-3.3,3.6-8,8.5-10.4,10.8s-8.3,8-13,12.6c-4.7,4.6-9.2,9-10,9.8-2.4,2.4-11.1,11.7-12.4,13.4-.7.9-1.6,1.8-2,2.1s-.8.8-.8,1c0,.3-2.5,3.1-5.6,6.2-3.1,3.2-5.6,6-5.6,6.2s-.5.9-1,1.4c-.6.6-.9,1.2-.8,1.7.1.4,0,.7-.4.7s-.6.3-.5.7c0,.5.3.4,1.1-.6.6-.7,1.4-1.3,1.8-1.3s.7-.2.7-.4c0-.6,3.6-4.4,4.2-4.4s1.8-1.4,3.4-3c1.6-1.6,3.3-3,3.6-3s.9-.3,1.2-.6c.3-.3.7-.6,1-.6s1.1-.6,1.8-1.4c.7-.8,1.6-1.4,2-1.4s1.1-.5,1.6-1c.5-.5,1.1-1,1.4-1,.5,0,26.6-26,27.1-27.1,1.3-2.5,10.6-10.9,12.1-10.9s1.2-.7,2-1.6c.9-.9,1.8-1.6,2-1.6s1.8-1.4,3.4-3c1.6-1.7,3.2-3,3.5-3,.8,0,7.7-6.8,7.7-7.6,0-4-6.9-5.2-10.6-1.9M116.6,371.7c2.9,2.1,10.4,5.5,19,8.4,5.8,2,5.7,1.8-.2-1.3-2.9-1.5-6.9-3.8-9-5.1-3.7-2.3-3.9-2.4-7.2-2.5-3.1-.1-3.3,0-2.6.4"/>
    <path id="path4" class="cls-3" d="M189.6,11.7C72.4,18.6-9,120,10.2,235.2c3.2,19.2,8.5,35.6,12,37.5,2.7,1.4,3.4.9,26.7-22.3,11.9-11.8,24.6-24.4,28.2-28,7.7-7.7,10.4-9.8,13.2-10.4,7.5-1.8,13.4,5,10.2,11.8-1.2,2.7-2.1,3.6-39.9,41.6-28.3,28.5-28.6,28.9-25.3,32.6,4.4,4.9,5.2,4.2,65.7-57.4,15.3-15.6,37.1-37.7,48.5-49,24.1-24,29.4-29.6,30.7-32,1.1-2,.9-1.9-1.6,1.2-1,1.2-16.4,17-34.4,35-17.9,18-38.6,39-46,46.6-18.8,19.4-51.8,52.2-54.5,54.2-5.6,4.1-10.9,1-8-4.6.4-.7,14.6-15.3,31.5-32.3,30.8-31,33.7-34.1,34.5-36.9,2.1-6.9-4.3-13.3-11.5-11.6-3.5.8-6.1,3.1-34.8,31.6-15.5,15.3-28.6,28.2-29.2,28.5-3.3,2.2-5.5.3-7.9-6.7-28.6-82.8,3.3-176.2,76-222.4C140.6,13,205.9,3.8,254.6,19.8c.4.1-.2-.2-1.3-.8-10.4-5.1-41.1-8.6-63.7-7.3M195.8,28.6c-8.8,3.8-6.4,16.8,3.1,16.8,6.8,0,10.9-7.3,7.3-13.2-2.1-3.4-7-5.1-10.4-3.6M202.3,29.8c7.4,3.7,4.9,14.8-3.3,14.8-8.4,0-10.9-11.1-3.4-14.9,2.3-1.2,4.2-1.1,6.7.1M152.8,48.9c-14.5,6.1-11.6,25.9,4,27,14,.9,21.3-15,11.1-24.2-4-3.6-10.3-4.8-15.1-2.8M161,51.8c6.5,1.9,8.8,10,4.3,14.8-3.6,3.8-10.1,3.8-13.8,0-6.2-6.5.7-17.4,9.4-14.8M100.4,80.4c-14.6,5.3-12.7,26.8,2.6,29.6,4.5.8,10.2-1.2,13.4-4.8,10.3-11.6-1.7-30-16.1-24.8M111.7,81.9c10.8,5.3,10.4,21.3-.6,26.3-6.9,3.1-15.5,0-18.6-6.8-5.9-12.7,6.8-25.6,19.3-19.5M276.6,97.4c-3,.9-34.7,17.7-40.8,21.5-5,3.1-8,7.6-8.4,12.5l-.2,2.5.6-2.6c1.6-7.6,4-9.8,20.2-18.5,29.3-15.6,30.5-16.1,33.6-14.5,3.7,1.9,2.6,6.9-9.3,41.2-5.7,16.5-5.9,16.8-13,20.2l-4.2,2.1-38.4,38.3c-91.9,91.7-92.2,91.9-96.1,91.5-6.2-.7-5-6,3.1-13.6,11.7-11.1,115-114.6,116.3-116.5,2.5-3.7,2.2-7.7-.9-10.6l-1.4-1.4,1.3,1.9c1.8,2.5,2,5.3.8,8.1-.7,1.6-11.2,12.3-61.4,62.6-33.3,33.3-60.8,61-61.1,61.4-3.9,5.6,1,11,7.2,8,2.6-1.3,38.2-36.2,98.7-96.8l32-32.1,4.6-2.2c8-3.8,7.6-3.1,17.6-33.2,7.8-23.5,8.2-25,6.7-27.9-1.2-2.2-3.9-2.9-7.2-1.9M350.3,100.2c-2.8,1-4.8,2.9-53.5,51.3-20.7,20.5-23,22.7-26.8,25.2-7,4.5-7.3,4.7-10.1,7.4-7.4,7-10.6,12.2-11.7,19.2q-1.1,7.4-24.8,30.6c-17.9,17.5-43.9,43.3-64.6,63.8-19.4,19.3-40.9,40.5-46,45.4-2.5,2.4-6.5,6.3-8.9,8.5-6.3,6-7.1,8.2-4.2,11.4,4.2,4.7,10.9,7.7,18.8,8.2l4.2.3,3.8,2.3c15.6,9.6,25,13.1,43.6,16.2,28.9,4.8,61.4,2.2,90.8-7.4,67.4-21.9,118-83.4,127.2-154.6,3.9-30.3,1-60.6-7.4-76.8-2.1-4-2.7-5.6-3.1-8.2-1.9-11.5-4.3-15.6-9-15.3-3.5.2-3.8.5-46,42.5-43.9,43.7-41.9,41.9-46.9,42-7.4,0-11.3-7.3-7.8-14.5,1.1-2.3,2.3-3.6,8.5-9.7,28.4-27.4,79.6-78.7,80.4-80.6,2.3-5-1.2-9.1-6.3-7.3M355.5,101.8c2.6,3,1,5.8-9,15.8-19.3,19.3-62.3,61.7-72.7,71.6-2.4,2.3-5,5.1-5.7,6.1-6.9,10.1,1.5,21.4,12.3,16.4,1.9-.9,5.2-4,22.8-21.6,44.1-44,59.9-59.5,61.6-60.6,4.8-3.3,9.7.4,8.4,6.3-.7,3-1.1,3.5-18.2,20.3-9,8.8-26.7,26.3-39.3,38.8-32.1,31.8-33.8,32.8-48.5,29.2-8.5-2.1-3.6-6.1-55.9,46.1-78.6,78.5-95,94.8-97,96-3.9,2.5-9.5,1-11-2.9-.8-2.2.4-3.7,13.3-16.4,6.7-6.6,25.3-25.1,41.3-41,16.1-16,38-37.7,48.8-48.4,46.9-46.4,45.4-44.7,46.4-53.2,1.3-10.9,5.2-16.7,18.2-27.2,2.4-1.9,16.8-15.9,32.8-31.8,39-38.7,43-42.6,45.6-43.9,2.6-1.3,4.5-1.2,5.9.4M257,121.5c-3.9,1.3-8.1,4.3-9.2,6.5l-.6,1.1h1.4c3.1,0,5.5,1.9,6.8,5.5,1.4,3.9,1.1,3.7,2.9,1.9,3.3-3.4,5.9-10.9,4.8-13.6-.9-2.2-2.7-2.7-6-1.5M56.9,122.4c-6.1,3-7.2,10.9-2.1,15.2,5.9,5.1,14.8,1,14.8-6.7,0-6.8-6.8-11.4-12.7-8.5M63.3,122.8c4.5,1.7,6.8,7.8,4.5,12.1-4,7.6-15.5,4.6-15.5-4s5.7-10.1,10.9-8.1M92.2,141.9c-7.2,4.5-3.3,15.5,4.9,13.6,8.5-1.9,7.2-14.4-1.6-14.4-1.4,0-2.6.3-3.4.7M98.8,142.9c5.9,4,3.2,12.4-3.8,11.8-8.1-.7-7.5-12.7.6-12.7s2.3.3,3.2.9M382.2,159.2c6.1,5.2,8.6,44.3,4.6,71.9-15.2,106.1-117.4,177.9-223.5,156.9-12.1-2.4-15.2-4.4-13.3-8.5.6-1.2,15.6-16.5,57.9-58.9,63.6-63.7,57.8-58.3,71.2-66.1,7.6-4.4,10.9-7.2,22.1-18.7,29.6-30.1,75.8-76.5,76.9-77.1,1.4-.7,2.8-.6,4,.4M35.4,160.6c-1.6.8-3,3.2-3,5.3,0,5.6,6.7,8,10.3,3.8,4.4-5-1.4-12.1-7.4-9.2M41.6,162.4c1.4,1.4,1.6,1.8,1.6,3.5,0,5.3-6.4,7.2-9.2,2.7-3.1-5.1,3.4-10.5,7.6-6.3M65.5,179c-8.1,2.9-4.8,15.1,3.6,13.7,7.3-1.2,7.8-11.9.6-13.8-1.9-.5-2.3-.5-4.2.2M70.8,180.3c1.9,1,2.9,2.5,3.1,4.8.7,6.8-7.5,9.5-11.4,3.7-3.4-5,2.8-11.3,8.3-8.5M35.8,197.2c-3.8,2.3-2.1,8.4,2.3,8.4s3.7-.9,4.5-2.5c2.1-4.4-2.6-8.4-6.8-5.9M41,198.8c1.2,1.4,1.3,2.3.5,3.9-1.2,2.2-4.3,2.5-5.8.5-2.8-3.6,2.4-8,5.4-4.5M265.8,232c1.8.8,3,2.1,3,3.2s-7,7.6-7.7,7.6-1.8,1.3-3.5,3c-1.6,1.6-3.2,3-3.4,3s-1.1.7-2,1.6c-.9.9-1.8,1.6-2,1.6-1.5,0-10.8,8.4-12.1,10.9-.6,1.1-26.6,27.1-27.1,27.1s-.9.5-1.4,1c-.5.5-1.2,1-1.6,1s-1.3.6-2,1.4c-.7.8-1.6,1.4-1.8,1.4s-.7.3-1,.6c-.3.3-.8.6-1.2.6s-2,1.4-3.6,3c-1.6,1.6-3.2,3-3.4,3-.6,0-4.2,3.8-4.2,4.4s-.3.4-.7.4-1.2.6-1.8,1.3c-.8,1-1.1,1.1-1.1.6,0-.4.2-.7.5-.7s.5-.3.4-.7c-.1-.4.2-1.1.8-1.7.6-.5,1-1.2,1-1.4s2.5-3.1,5.6-6.2c3.1-3.2,5.6-6,5.6-6.2,0-.3.4-.7.8-1s1.3-1.3,2-2.1c1.3-1.7,10-11,12.4-13.4.8-.8,5.3-5.2,10-9.8,4.7-4.6,10.6-10.3,13-12.6s7.1-7.2,10.4-10.8c10.2-11.3,11.4-12,15.9-10M331.7,249.4c-9.7,2.2-16.5,10.9-15.5,20,2.1,20,28.1,24.1,36.8,5.8,6.2-13-7.1-29-21.3-25.8M338.9,250.1c14,3,19.5,20.1,9.7,30.3-10.7,11.2-28.9,5.7-31.5-9.5-2.1-12.3,9.5-23.4,21.8-20.8M238.5,323.6c-3.7,2.3-3.1,7.8,1,9.2,4.6,1.6,8.6-3.4,6.1-7.5-1.5-2.4-4.7-3.2-7.1-1.7M244.1,325.2c3.4,3-.3,8.5-4.6,6.7-1.7-.7-2.9-3-2.5-4.6.8-3.2,4.6-4.4,7.1-2.1"/>
    <path id="path5" class="cls-1" d="M187,7.2c-10.1.7-22.2,2.5-33.2,5C81.9,28.5,29.4,79.4,9.1,152.6c-8.8,31.5-8.1,72.2,1.8,106.2,4.4,15.3,7.4,20,12.5,20s4.2-.6,34.4-30.5c15.7-15.6,29.3-28.8,30-29.5,5-4,10.4-1.1,7.8,4.1-.9,1.7-23.1,24.5-52.1,53.4-8.5,8.4-12,12.2-12.8,13.7-5.2,9.7,4.3,18.4,14,12.9,3.9-2.2,21.6-19.7,61.5-60.6,9.2-9.5,30.1-30.6,46.4-47,30.5-30.7,31.4-31.6,35.4-39,1.4-2.6,3.2-5.1,5.2-7.2l3-3.2-3.2,3c-3.4,3.2-6.1,5-9.1,6.3-1.6.7-2,1.1-3.1,3.5-1.6,3.3-4.2,6.1-31.2,33.1-11.3,11.3-33.2,33.4-48.5,49-41.1,41.9-56,56.6-58.9,58-5.6,2.7-9.8-1.2-7-6.7.6-1.1,9.3-10.2,25.5-26.5,37.7-37.9,38.6-38.9,39.9-41.6,3.2-6.9-2.7-13.7-10.2-11.8-2.8.7-5.5,2.8-13.2,10.4-3.6,3.6-16.3,16.2-28.2,28-23.3,23.2-24,23.7-26.7,22.3-6.9-3.7-15.5-46-15-73.7C9.1,102.2,78.4,25.7,176,13c27.3-3.6,64.2-.6,78.2,6.3,2.6,1.3,3.2,1.4,7.2,1.6,3.4.1,5,.4,7.2,1.2,1.5.6,3.2,1.1,3.6,1.3.4.1-.8-.6-2.8-1.6-2-1-4.3-2.4-5.3-3-6-4.1-16.2-7.1-33.7-9.9-11.2-1.8-30.1-2.5-43.4-1.6M274.8,24.6c.6.3,1.2.6,1.4.6s0-.3-.6-.6c-.6-.3-1.2-.6-1.4-.6s0,.3.6.6M281.2,27.6c.8.4,1.6.8,1.8.8s-.2-.3-1-.8c-.8-.4-1.6-.8-1.8-.8s.2.3,1,.8M195.6,29.7c-7.5,3.8-5,14.9,3.4,14.9,8.2,0,10.7-11.1,3.3-14.8-2.6-1.3-4.4-1.3-6.7-.1M287.6,30.6c0,.1.7.6,1.6,1,.9.4,1.6.7,1.6.6s-.7-.6-1.6-1c-.9-.4-1.6-.7-1.6-.6M291.8,32.9c.4.3,2.8,1.9,5.4,3.6,2.6,1.7,7.4,5.4,10.7,8.2,21.8,18.4,30.9,28.1,30.9,32.7,0,3.8-7.1,11.4-22.7,24.2-2.9,2.4-6.2,4.1-7.2,3.7-2.1-.7-2.1-1-1.8-8.5.5-13.2-4.6-21.2-14.1-22.2l-1.9-.2,2.1.5c10.2,2.6,14.6,10.4,13.2,23.2-.9,7.8-.5,9.1,2.7,8.5,2.9-.5,12.3-8,22.8-18.2,11-10.7,10.9-11.8-1.2-24-12.3-12.4-26.4-24.4-34.9-29.5-2.7-1.6-5.4-3.1-3.8-2M200.3,35.3c1.2,1.2.3,3.5-1.4,3.5s-2.1-1-2.1-2c0-1.6,2.4-2.7,3.5-1.5M155.7,51.8c-8,2.5-8.2,12.9-.3,16.6,3.9,1.9,9.1.2,11-3.7,3.7-7.3-3-15.4-10.7-12.9M160.9,58.5c.6,1,.3,3-.6,3.7-2.4,1.7-5.3-.8-3.9-3.4.8-1.5,3.6-1.7,4.5-.2M285.9,74.4c-2.3.4-5.4,1.4-6.7,2.2-1.1.7-.7.6,2.6-.7,1.1-.4,3.6-1,5.6-1.3,2-.3,2.9-.5,2-.5-.9,0-2.5.1-3.5.3M275.1,78.6c-1.5.8-1.4,1.1.1.4.7-.3,1.2-.7,1.2-.8,0-.3,0-.2-1.3.4M271.1,80.8c-.8.4-1.5.9-1.5,1s.7-.2,1.6-.6c.9-.4,1.6-.9,1.6-1q0-.3-1.7.6M100.1,81.2c-14.7,5.8-10.5,28.1,5.3,28.1,12.4,0,18.8-14.9,10.4-24.4-3.4-3.9-10.8-5.7-15.7-3.7M267.9,82.6c-1.5.8-1.4,1.1.1.4.7-.3,1.2-.7,1.2-.8,0-.3,0-.2-1.3.4M264.3,84.6c-1.5.8-1.4,1.1.1.4.7-.3,1.2-.7,1.2-.8,0-.3,0-.2-1.3.4M108.9,85.8c8.2,3.4,7.9,15.5-.5,18.4-8.9,3.2-16.4-7.6-10.7-15.4,2.3-3.1,7.6-4.5,11.2-3M259.5,87.2c-.8.4-1.5.9-1.5,1s.7-.2,1.6-.6c.9-.4,1.6-.9,1.6-1q0-.3-1.7.6M255.9,89.2c-.8.4-1.5.9-1.5,1s.7-.2,1.6-.6c.9-.4,1.6-.9,1.6-1q0-.3-1.7.6M251.9,91.4c-1.5.8-1.4,1.1.1.4.7-.3,1.2-.7,1.2-.8,0-.3,0-.2-1.3.4M275.8,92.6c-3,.9-31.2,15.7-41,21.4-8.1,4.7-11.9,10.6-12.6,19.3-.5,6.2-1.5,8.8-4.5,12.2-1,1.1,0,.3,2.1-1.8,2.2-2.1,4.7-4.4,5.6-5.1l1.6-1.3.2-4.1c.4-8.9,2.7-11.3,18.7-19.9,30.1-16.2,32.3-17.2,35.7-15.8,4.5,1.9,4.2,3.6-4.5,29.8-10,30.1-9.6,29.4-17.6,33.2l-4.6,2.2-32,32.1c-60.5,60.6-96.1,95.5-98.7,96.8-6.2,3-11.1-2.3-7.2-8,.3-.4,27.8-28.1,61.1-61.4,66.1-66.1,62.5-62.3,62.2-66.7-.3-4-3.7-7.6-5.8-6.3-.7.4-17.1,16.6-36.5,36-42.1,41.9-66.7,65.8-71.7,69.6-7.4,5.6-12.7,3.9-9.2-3,2.3-4.5,6.4-8.8,48.8-52,17.2-17.5,33.7-34.5,36.8-37.8l5.5-6-6.5,6.8c-3.6,3.7-19,19.4-34.2,34.8-46.4,47-49.7,50.5-52,55.1-3,6.1,1.3,9,7.6,5,5.4-3.4,18.4-15.9,68.9-66,38.9-38.6,39.1-38.8,41.5-36.5,2.3,2.3,3.2,1.3-42.3,46.8-82.7,82.5-80.2,79.9-80.2,86,0,10.3,10.7,13,19.8,5.1,2.4-2.1,36.1-35.6,88.8-88.1l38.4-38.3,4.6-2.2c5.5-2.6,7.6-4.5,9.8-8.8,1.9-3.8,16.5-48,17.1-51.5,1.3-8.6-5.1-14.1-13.4-11.5M350.9,94.8q-4.6.9-37.7,33.8c-37.8,37.5-42.7,42.3-45.6,44-8.4,5-10.4,6.8-22.6,20-4.7,5.1-11.4,11.9-14.8,15.2-3.5,3.3-13.1,12.7-21.3,21-18.1,18.1-78,77.3-84.4,83.4-10.5,10.1-19.7,16.7-27.7,20-1.8.7-6.7.8-9.2.2-.9-.2-2.7-.7-4-1.1-3.2-.8-4.7-1.5-7.6-3.5-4.1-2.8-4.6-3-9.6-3.8-4.4-.7-7.7,1.3-6.5,4.1.9,2.3,7.2,9.8,15.2,18.1,2.8,2.9,6.2,6.6,7.7,8.3,1.5,1.7,4.1,4.2,5.8,5.6,1.7,1.4,4.4,3.7,5.9,5.1,5.3,4.9,9.3,7.2,18.5,10.6,2.6.9,7.2,2.9,10.4,4.3,10.5,4.7,23.6,9.6,30.2,11.3,54.2,13.7,117.8,1.3,161-31.2,41.1-31,66.1-70.3,76.2-119.8,6.1-29.8,4.2-68.5-4.4-89.4-2.2-5.4-4-10.5-5.2-14.8-2.8-9.9-6.8-14.2-12.8-13.7-5.3.4-2.2-2.4-55.8,51-17.3,17.2-32.1,31.8-33,32.3-2.9,2-6,1.7-7.4-.7-2.3-3.7-1-5.6,12.1-18.3,13-12.6,43.6-42.9,62.3-61.6,14.6-14.6,15.5-15.8,15.9-20.3.6-6.7-4.8-11.4-11.4-10.1M355.1,100.4c2.3,1.4,2.9,4.1,1.5,7.1-.9,1.9-52,53.1-80.4,80.6-6.3,6-7.4,7.4-8.5,9.7-3.5,7.2.5,14.5,7.8,14.5,5,0,3,1.8,46.9-42,21.9-21.8,40.7-40.2,41.8-41,5.7-3.9,9.7-1.3,12,8,.6,2.2,1.5,5.4,2.2,7s1.4,3.8,1.7,4.9c.3,1.1,1.1,3.2,1.8,4.6,4.6,9.3,7.4,25.9,7.7,45.8,1,66.9-31.2,127.2-87.7,163.9-36.6,23.8-87.4,34.1-131.8,26.7-12.1-2-17.7-3.4-24.4-6.2-2.4-1-5.8-2.2-7.6-2.8-4.2-1.3-13.9-5.1-16.1-6.2-.9-.5-2.6-1.4-3.8-2.2-1.2-.7-3.6-1.7-5.2-2.1-6-1.7-10.4-4.2-13.2-7.6-1-1.1-2.8-2.8-4.2-3.6-9.8-6.3-9.8-8.7.3-16.3,15.5-11.7,22.7-18.1,46.1-41.3,10.1-10,26.9-26.6,37.3-36.8,10.4-10.2,30-29.7,43.6-43.2,13.6-13.5,25.7-25.6,27.1-26.9,1.3-1.2,3.2-3.3,4.2-4.5,2.2-2.8,8.1-8.5,10.2-9.9.9-.6,3.5-2.3,5.8-3.8,3.8-2.5,6.1-4.6,26.8-25.2,33.5-33.3,48-47.5,50.1-49.2,3.2-2.6,6-3.2,8.2-1.9M57.4,123c-4.3,1.9-6.2,7.4-4.2,11.7,2.9,5.9,11.6,6,14.6.2,3.6-6.8-3.6-14.9-10.5-11.9M62.8,129.1c1.6,2,.3,4.5-2.2,4.5s-3-1.5-3-2.8,1.6-2.8,3-2.8,1.6.3,2.2,1.1M247,129.6c-1,1.7,7.9,10.1,9.3,8.7.8-.8-2-6.5-3.9-8-1.3-.9-4.9-1.4-5.3-.7M202.6,138.9l-1.6,1.7,1.7-1.6c1.6-1.5,1.9-1.8,1.6-1.8s-.8.8-1.7,1.7M92.4,142.9c-6.9,4.6-1.3,14.8,6.2,11.3,5.9-2.8,3.7-12.2-3-12.2s-2.3.3-3.2.9M211.6,151.9l-3.8,3.9,3.9-3.8c3.6-3.5,4.1-4,3.8-4s-1.8,1.8-3.9,3.9M36,161.3c-2.5,1.3-3.5,4.8-2,7.3,2.8,4.5,9.2,2.6,9.2-2.7s-3.9-6.3-7.2-4.6M64.8,180.3c-2.9,1.6-4.1,5.8-2.3,8.5,3.9,5.7,12,3.1,11.4-3.7-.4-4.5-5.1-6.9-9.1-4.8M35.9,198.7c-2.7,2.7.3,7.2,3.8,5.7,2.3-1,2.9-3.6,1.3-5.5-1.4-1.6-3.6-1.7-5.1-.2M331.3,250.2c-19,4.6-19.2,30.8-.4,35.6,14.5,3.7,27.5-12.1,20.9-25.4-3.8-7.8-12.5-12.2-20.6-10.2M341,255.6c6.9,3.5,10,11.3,6.9,17.7-6.6,13.4-26.3,9.3-26.3-5.5,0-9.6,10.9-16.4,19.4-12.2M286.9,309.5c-2,.4-3.4,4.3-2.5,7,1.9,5.8,9.6,3.5,9-2.6-.3-3.6-2.5-5.1-6.5-4.4M289.8,316.6c1.6,1.6-.3,3.6-2.4,2.6-1.1-.5-1.4-2-.5-2.8.7-.7,2.1-.6,2.9.1M238.3,325.1c-1.5,1.5-1.7,2.9-.9,4.7,1.9,4,7.9,2.6,7.9-1.9s-4.7-5.4-7.1-2.8"/>
  </g>
</svg>